<?xml version="1.0" encoding="UTF-8"?>
<!DOCTYPE svg PUBLIC "-//W3C//DTD SVG 1.1//EN" "http://www.w3.org/Graphics/SVG/1.1/DTD/svg11.dtd">
<!-- Creator: CorelDRAW -->
<svg xmlns="http://www.w3.org/2000/svg" xml:space="preserve" width="2048px" height="2048px" style="shape-rendering:geometricPrecision; text-rendering:geometricPrecision; image-rendering:optimizeQuality; fill-rule:evenodd; clip-rule:evenodd"
viewBox="0 0 2048 2048"
 xmlns:xlink="http://www.w3.org/1999/xlink">
 <defs>
  <style type="text/css">
   <![CDATA[
    .fil1 {fill:none}
    .fil0 {fill:#212121;fill-rule:nonzero}
   ]]>
  </style>
 </defs>
 <g id="Layer_x0020_1">
  <metadata id="CorelCorpID_0Corel-Layer"/>
  <g id="_287802336">
   <path id="_287803632" class="fil0" d="M628.568 542.612l790.864 0c23.3398,0 44.537,9.52678 59.8831,24.8717 15.3449,15.3449 24.8717,36.5422 24.8717,59.8819l0 793.27c0,23.3386 -9.52678,44.5359 -24.8717,59.8808 -15.3461,15.3449 -36.5433,24.8717 -59.8831,24.8717l-790.864 0c-23.3398,0 -44.537,-9.52678 -59.8831,-24.8717 -15.3449,-15.3449 -24.8717,-36.5422 -24.8717,-59.8808l0 -793.27c0,-23.3398 9.52678,-44.537 24.8717,-59.8819 15.3461,-15.3449 36.5433,-24.8717 59.8831,-24.8717zm790.864 64.0016l-790.864 0c-5.67402,0 -10.8567,2.34449 -14.6327,6.12048 -3.77481,3.77481 -6.12048,8.95749 -6.12048,14.6315l0 793.27c0,5.67284 2.34567,10.8555 6.12048,14.6303 3.77599,3.77599 8.95867,6.12048 14.6327,6.12048l790.864 0c5.67402,0 10.8567,-2.34449 14.6327,-6.12048 3.77481,-3.77481 6.12048,-8.95749 6.12048,-14.6303l0 -793.27c0,-5.67402 -2.34567,-10.8567 -6.12048,-14.6315 -3.77599,-3.77599 -8.95867,-6.12048 -14.6327,-6.12048z"/>
   <path id="_287803272" class="fil0" d="M1485.49 915.172l22.402 0c17.6728,0 32.0008,14.328 32.0008,32.0008l0 153.654c0,17.6728 -14.328,32.0008 -32.0008,32.0008l-22.402 0c-17.6728,0 -32.0008,-14.328 -32.0008,-32.0008l0 -153.654c0,-17.6728 14.328,-32.0008 32.0008,-32.0008z"/>
   <path id="_287803128" class="fil0" d="M540.113 915.172l22.402 0c17.6728,0 32.0008,14.328 32.0008,32.0008l0 153.654c0,17.6728 -14.328,32.0008 -32.0008,32.0008l-22.402 0c-17.6728,0 -32.0008,-14.328 -32.0008,-32.0008l0 -153.654c0,-17.6728 14.328,-32.0008 32.0008,-32.0008z"/>
   <path id="_287802600" class="fil0" d="M640.77 543.611c-17.1201,4.28032 -27.5303,21.6307 -23.25,38.7508 4.28032,17.1201 21.6307,27.5303 38.7508,23.25 85.389,-21.3331 94.982,-92.1343 104.721,-164.025 8.43308,-62.2583 17.0315,-125.705 110.213,-121.421l-0.00472441 0.0933072c0.498426,0.0236221 0.994489,0.0330709 1.48701,0.034252l0 0.0011811 0.159449 0 151.153 0 151.312 0c1.22362,0 2.43071,-0.0720473 3.6189,-0.205512 91.1646,-3.21378 99.7087,59.7213 108.077,121.498 9.73938,71.8902 19.3323,142.691 104.721,164.025 17.1201,4.28032 34.4705,-6.12993 38.7508,-23.25 4.28032,-17.1201 -6.12993,-34.4705 -23.25,-38.7508 -43.4693,-10.8602 -50.1697,-60.3119 -56.9717,-110.523 -12.2528,-90.4489 -24.7642,-182.597 -173.668,-176.767 -0.424016,-0.0165354 -0.849213,-0.0271654 -1.27795,-0.0271654l-151.312 0 -151.312 0 0 0.0744095c-150.118,-6.41221 -162.658,86.0115 -174.946,176.72 -6.80197,50.2111 -13.5024,99.6627 -56.9717,110.523z"/>
   <path id="_287802504" class="fil0" d="M656.274 1442.39c-17.1201,-4.28032 -34.4705,6.12993 -38.7508,23.25 -4.28032,17.1201 6.12993,34.4705 23.25,38.7508 43.4681,10.8602 50.1697,60.3107 56.9705,110.522 12.2882,90.7087 24.8292,183.134 174.947,176.721l0 0.0744095 151.311 0 151.312 0c0.42874,0 0.853938,-0.0106299 1.27795,-0.0271654 148.904,5.82993 161.415,-86.3186 173.668,-176.767 6.80197,-50.2111 13.5024,-99.6627 56.9717,-110.523 17.1201,-4.28032 27.5303,-21.6307 23.25,-38.7508 -4.28032,-17.1201 -21.6307,-27.5303 -38.7508,-23.25 -85.389,21.3331 -94.982,92.1343 -104.721,164.025 -8.36812,61.7764 -16.9122,124.712 -108.077,121.498 -1.18819,-0.133465 -2.39528,-0.205512 -3.6189,-0.205512l-151.312 0 -151.152 0 -0.159449 0 0 0.0011811c-0.49252,0.0011811 -0.988583,0.0106299 -1.48701,0.034252l0.00472441 0.0933072c-93.182,4.28386 -101.782,-59.1638 -110.215,-121.422 -9.7382,-71.8902 -19.3323,-142.69 -104.72,-164.023z"/>
   <path id="_287802384" class="fil0" d="M708.429 1023.37c0,-29.3858 5.2937,-49.9843 15.8811,-61.7245 10.5874,-11.739 26.7201,-17.6091 48.3638,-17.6091 10.4067,0 18.978,1.26024 25.6406,3.85276 6.69804,2.55709 12.1358,5.90552 16.3488,10.011 4.213,4.10551 7.5626,8.42717 9.9756,12.965 2.44843,4.53662 4.3937,9.83032 5.87008,15.8811 2.88071,11.5595 4.32048,23.5878 4.32048,36.0839 0,28.089 -4.75276,48.6154 -14.2606,61.6158 -9.47009,13.037 -25.8201,19.5189 -49.0477,19.5189 -13.0004,0 -23.5158,-2.05276 -31.5461,-6.23032 -8.03032,-4.14095 -14.5854,-10.2272 -19.7351,-18.2221 -3.70866,-5.72599 -6.62599,-13.5047 -8.67875,-23.3717 -2.08819,-9.90355 -3.13229,-20.8146 -3.13229,-32.7709zm42.6378 0.108662c0,19.6984 1.72795,33.1299 5.22166,40.3323 3.45709,7.23898 8.53465,10.8402 15.1252,10.8402 4.35709,0 8.1378,-1.54843 11.3433,-4.60985 3.20551,-3.06024 5.54528,-7.88623 7.05827,-14.4768 1.51299,-6.62599 2.2689,-16.9252 2.2689,-30.9343 0,-20.5264 -1.72914,-34.3548 -5.22166,-41.413 -3.45709,-7.05827 -8.67875,-10.5874 -15.665,-10.5874 -7.09489,0 -12.2445,3.60118 -15.378,10.8036 -3.1689,7.20237 -4.75276,20.563 -4.75276,40.0453zm175.342 48.9402l-78.2906 0 0 -35.328 78.2906 -93.0544 37.4516 0 0 95.0351 19.4103 0 0 33.3473 -19.4103 0 0 28.917 -37.4516 0 0 -28.917zm0 -33.3473l0 -48.6166 -41.3776 48.6166 41.3776 0zm74.4721 -49.7681l45.9154 0 0 43.0335 -45.9154 0 0 -43.0335zm0 68.9977l45.9154 0 0 43.0347 -45.9154 0 0 -43.0347zm165.115 -114.265l0 157.299 -43.467 0 0 -103.065c-7.02166,5.32914 -13.8284,9.65079 -20.4189,12.9638 -6.55394,3.31299 -14.8004,6.48189 -24.7394,9.5067l0 -35.2548c14.6563,-4.71851 25.9996,-10.3713 34.1032,-16.9618 8.06575,-6.62599 14.4047,-14.8016 18.978,-24.4878l35.5441 0zm64.1729 2.62795l102.021 0 0 34.2839 -69.1064 0 -3.70985 23.2276c4.78937,-2.2689 9.5067,-3.96142 14.1886,-5.07756 4.68189,-1.11614 9.29174,-1.69252 13.865,-1.69252 15.4854,0 28.0536,4.68189 37.6677,14.0445 9.65198,9.36261 14.4768,21.1394 14.4768,35.328 0,10.011 -2.48386,19.5898 -7.45394,28.8095 -4.97008,9.21851 -11.9917,16.2414 -21.1028,21.1028 -9.11103,4.86142 -20.7791,7.27442 -34.9677,7.27442 -10.1917,0 -18.9425,-0.972048 -26.2169,-2.88071 -7.27442,-1.94528 -13.4681,-4.82599 -18.5823,-8.67993 -5.07756,-3.81614 -9.21851,-8.17442 -12.3874,-12.9992 -3.1689,-4.8626 -5.79804,-10.9122 -7.92284,-18.15l43.4658 -4.75394c1.08071,6.95079 3.52914,12.2445 7.38308,15.8811 3.88937,3.60118 8.49922,5.4378 13.8284,5.4378 5.97756,0 10.9122,-2.2689 14.837,-6.8067 3.88937,-4.53662 5.83347,-11.3067 5.83347,-20.3103 0,-9.21851 -1.9441,-15.9898 -5.90552,-20.2748 -3.92481,-4.28504 -9.18308,-6.40985 -15.7016,-6.40985 -4.14095,0 -8.17442,1.00866 -12.0272,3.02481 -2.88189,1.51299 -6.05079,4.17756 -9.50788,8.03032l-36.5882 -5.25709 13.6134 -83.152z"/>
  </g>
 </g>
 <rect class="fil1" width="2048" height="2048"/>
</svg>
